<svg width="26" height="26" viewBox="0 0 26 26" fill="none" xmlns="http://www.w3.org/2000/svg">
<path d="M14.0833 12.8917H7.58325C7.13909 12.8917 6.77075 12.5234 6.77075 12.0792C6.77075 11.6351 7.13909 11.2667 7.58325 11.2667H14.0833C14.5274 11.2667 14.8958 11.6351 14.8958 12.0792C14.8958 12.5234 14.5274 12.8917 14.0833 12.8917Z" fill="white"/>
<path d="M2.16675 12.8918C1.72258 12.8918 1.35425 12.5234 1.35425 12.0793V7.07428C1.35425 4.42012 3.51008 2.26428 6.16425 2.26428H12.2526C15.0367 2.26428 17.0626 4.11678 17.0626 6.66261C17.0626 7.10678 16.6942 7.47511 16.2501 7.47511C15.8059 7.47511 15.4376 7.10678 15.4376 6.66261C15.4376 4.75595 13.7801 3.88928 12.2526 3.88928H6.16425C4.40925 3.88928 2.97925 5.31928 2.97925 7.07428V12.0793C2.97925 12.5343 2.61091 12.8918 2.16675 12.8918Z" fill="white"/>
<path d="M17.3334 23.725H6.50008C3.66175 23.725 1.35425 21.4175 1.35425 18.5791V10.9958C1.35425 8.15748 3.66175 5.84998 6.50008 5.84998H17.3334C20.1717 5.84998 22.4792 8.15748 22.4792 10.9958V12.5666C22.4792 13.0108 22.1109 13.3791 21.6667 13.3791H20.4967C20.1176 13.3791 19.7709 13.5199 19.5218 13.7799L19.5109 13.7908C19.1534 14.1483 19.0126 14.6466 19.1426 15.1341C19.3051 15.7408 19.9443 16.185 20.6593 16.185H21.6667C22.1109 16.185 22.4792 16.5533 22.4792 16.9975V18.5683C22.4792 21.4175 20.1717 23.725 17.3334 23.725ZM6.50008 7.47498C4.56091 7.47498 2.97925 9.05664 2.97925 10.9958V18.5791C2.97925 20.5183 4.56091 22.1 6.50008 22.1H17.3334C19.2726 22.1 20.8542 20.5183 20.8542 18.5791V17.8208H20.6593C19.1968 17.8208 17.9292 16.8999 17.5717 15.5674C17.2901 14.5166 17.5934 13.4008 18.3626 12.6424C18.9259 12.0683 19.6842 11.7541 20.4967 11.7541H20.8542V10.9958C20.8542 9.05664 19.2726 7.47498 17.3334 7.47498H6.50008Z" fill="white"/>
<path d="M22.7173 17.8209H20.6265C18.9906 17.8209 17.604 16.6075 17.474 15.0475C17.3873 14.1484 17.7123 13.2708 18.3623 12.6316C18.904 12.0683 19.6731 11.7542 20.4856 11.7542H22.7065C23.7682 11.7542 24.6348 12.61 24.6348 13.6717V15.9033C24.6456 16.965 23.779 17.8209 22.7173 17.8209ZM20.4965 13.3792C20.1173 13.3792 19.7707 13.52 19.5215 13.78C19.2073 14.0833 19.0557 14.495 19.099 14.9067C19.1532 15.6217 19.8465 16.1959 20.6265 16.1959H22.7173C22.8798 16.1959 23.0207 16.0658 23.0207 15.9033V13.6717C23.0207 13.5092 22.8798 13.3792 22.7173 13.3792H20.4965Z" fill="white"/>
</svg>
